<?xml version="1.0" encoding="UTF-8" standalone="no"?>
<!DOCTYPE svg PUBLIC "-//W3C//DTD SVG 1.1//EN" "http://www.w3.org/Graphics/SVG/1.1/DTD/svg11.dtd">
<svg width="100%" height="100%" viewBox="0 0 445 78" version="1.1" xmlns="http://www.w3.org/2000/svg" xmlns:xlink="http://www.w3.org/1999/xlink" xml:space="preserve" xmlns:serif="http://www.serif.com/" style="fill-rule:evenodd;clip-rule:evenodd;stroke-linejoin:round;stroke-miterlimit:2;">
    <g transform="matrix(1,0,0,1,-49.2895,-224.478)">
        <g>
            <g transform="matrix(0.913733,0,0,0.857239,148.164,28.862)">
                <path d="M54.959,247.489C49.482,247.489 44.478,249.661 40.701,253.249L40.701,248.622L33.62,248.622L33.62,291.3L40.701,291.3L40.701,269.961C40.701,261.464 46.933,254.665 54.959,254.665C63.079,254.665 69.216,261.464 69.216,269.961L69.216,291.3L76.392,291.3L76.392,269.961C76.392,257.592 66.761,247.489 54.959,247.489Z" style="fill:rgb(0,183,255);fill-rule:nonzero;"/>
            </g>
            <g transform="matrix(0.132891,0,0,0.132891,187.428,207.682)">
                <circle cx="130.123" cy="440.769" r="21.659" style="fill:rgb(0,183,255);"/>
            </g>
            <g transform="matrix(1.38449,0,0,1.38449,13.6971,-139.769)">
                <rect x="25.718" y="260.982" width="4.725" height="41.067" style="fill:rgb(26,78,153);fill-rule:nonzero;"/>
                <path d="M34.112,275.682L34.112,302.049L38.837,302.049L38.837,275.682L34.112,275.682ZM39.397,270.024C39.397,268.507 38.091,267.282 36.475,267.282C34.858,267.282 33.552,268.507 33.552,270.024C33.552,271.482 34.858,272.707 36.475,272.707C38.091,272.707 39.397,271.482 39.397,270.024Z" style="fill:rgb(26,78,153);fill-rule:nonzero;"/>
                <path d="M58.921,296.624L47.791,275.682L42.506,275.682L56.558,302.049L61.284,302.049L75.336,275.682L70.113,275.682L58.921,296.624Z" style="fill:rgb(26,78,153);fill-rule:nonzero;"/>
                <path d="M79.004,275.682L79.004,302.049L83.73,302.049L83.73,275.682L79.004,275.682ZM84.289,270.024C84.289,268.507 82.984,267.282 81.367,267.282C79.75,267.282 78.445,268.507 78.445,270.024C78.445,271.482 79.75,272.707 81.367,272.707C82.984,272.707 84.289,271.482 84.289,270.024Z" style="fill:rgb(26,78,153);fill-rule:nonzero;"/>
                <path d="M101.45,274.982C97.844,274.982 94.549,276.324 92.061,278.54L92.061,275.682L87.398,275.682L87.398,302.049L92.061,302.049L92.061,288.865C92.061,283.615 96.165,279.415 101.45,279.415C106.798,279.415 110.839,283.615 110.839,288.865L110.839,302.049L115.565,302.049L115.565,288.865C115.565,281.224 109.222,274.982 101.45,274.982Z" style="fill:rgb(26,78,153);fill-rule:nonzero;"/>
            </g>
            <g transform="matrix(1.09466,0,0,0.22743,220.012,222.224)">
                <path d="M2.674,89.487L2.674,249.996L8.65,249.996L8.65,89.487L2.674,89.487ZM9.358,55.042C9.358,45.809 7.707,38.352 5.662,38.352C3.617,38.352 1.966,45.809 1.966,55.042C1.966,63.919 3.617,71.377 5.662,71.377C7.707,71.377 9.358,63.919 9.358,55.042Z" style="fill:rgb(26,78,153);"/>
                <path d="M31.063,85.226C26.502,85.226 22.334,93.393 19.188,106.887L19.188,89.487L13.29,89.487L13.29,249.996L19.188,249.996L19.188,169.741C19.188,137.782 24.379,112.214 31.063,112.214C37.826,112.214 42.938,137.782 42.938,169.741L42.938,249.996L48.915,249.996L48.915,169.741C48.915,123.222 40.893,85.226 31.063,85.226Z" style="fill:rgb(26,78,153);"/>
                <path d="M71.563,227.269C64.485,227.269 58.823,201.346 58.823,169.741C58.823,137.782 64.485,112.214 71.563,112.214C78.562,112.214 84.303,137.782 84.303,169.741C84.303,201.346 78.562,227.269 71.563,227.269ZM84.303,107.953C81,94.103 76.517,85.226 71.563,85.226C61.261,85.226 52.847,123.222 52.847,169.741C52.847,216.26 61.261,253.902 71.563,253.902C76.517,253.902 81,245.379 84.303,231.175L84.303,258.873C84.303,290.833 78.562,316.401 71.563,316.401C67.474,316.401 63.935,307.878 61.576,294.739L57.329,313.56C60.789,331.67 65.901,343.389 71.563,343.389C81.865,343.389 90.201,305.392 90.201,258.873L90.201,89.487L84.303,89.487L84.303,107.953Z" style="fill:rgb(26,78,153);"/>
                <path d="M101.997,236.146C101.997,226.203 100.267,218.391 98.065,218.391C95.863,218.391 94.133,226.203 94.133,236.146C94.133,246.089 95.863,253.902 98.065,253.902C100.267,253.902 101.997,246.089 101.997,236.146Z" style="fill:rgb(26,78,153);"/>
                <path d="M137.307,205.252C134.948,218.746 130.308,227.269 125.668,227.269C117.489,227.269 111.827,201.346 111.827,169.741C111.827,137.782 117.489,112.214 125.668,112.214C130.308,112.214 134.948,120.736 137.307,133.875L141.475,115.055C138.093,96.944 131.959,85.226 125.668,85.226C114.186,85.226 105.929,123.222 105.929,169.741C105.929,216.26 114.186,253.902 125.668,253.902C131.959,253.902 138.093,242.538 141.475,224.428L137.307,205.252Z" style="fill:rgb(26,78,153);"/>
                <path d="M164.123,227.269C157.046,227.269 151.383,201.346 151.383,169.741C151.383,137.782 157.046,112.214 164.123,112.214C171.122,112.214 176.863,137.782 176.863,169.741C176.863,201.346 171.122,227.269 164.123,227.269ZM164.123,85.226C153.821,85.226 145.407,123.222 145.407,169.741C145.407,216.26 153.821,253.902 164.123,253.902C174.425,253.902 182.761,216.26 182.761,169.741C182.761,123.222 174.425,85.226 164.123,85.226Z" style="fill:rgb(26,78,153);"/>
                <path d="M231.204,85.226C225.463,85.226 220.43,99.785 217.363,121.802C214.375,99.785 209.263,85.226 203.522,85.226C199.354,85.226 195.58,93.038 192.67,105.467L192.67,89.487L186.693,89.487L186.693,249.996L192.67,249.996L192.67,169.741C192.67,137.782 197.231,112.214 203.522,112.214C209.892,112.214 214.375,137.782 214.375,169.741L214.375,249.996L220.351,249.996L220.351,169.741C220.351,137.782 224.913,112.214 231.204,112.214C237.574,112.214 242.056,137.782 242.056,169.741L242.056,249.996L248.033,249.996L248.033,169.741C248.033,123.222 240.483,85.226 231.204,85.226Z" style="fill:rgb(26,78,153);"/>
            </g>
        </g>
    </g>
</svg>
